<?xml version="1.0" standalone="no"?>
 <!DOCTYPE svg PUBLIC "-//W3C//DTD SVG 1.1//EN" 
 "http://www.w3.org/Graphics/SVG/1.1/DTD/svg11.dtd"> 
<svg xmlns="http://www.w3.org/2000/svg" version="1.1" 
    width="1.06934cm" height="14.3358cm" viewBox="0 0 4210 56440 ">
<title>SVG Picture created as CONN_01X46.svg date 2015/07/19 11:15:35 </title>
  <desc>Picture generated by Eeschema-SVG </desc>
<g style="fill:#000000; fill-opacity:1;stroke:#000000; stroke-opacity:1;
stroke-linecap:round; stroke-linejoin:round; "
 transform="translate(0 0) scale(1 1)">
</g>
<g style="fill:#000000; fill-opacity:0.0; 
stroke:#000000; stroke-width:-10; stroke-opacity:1; 
stroke-linecap:round; stroke-linejoin:round;">
</g>
<g style="fill:#000000; fill-opacity:0.0; 
stroke:#000000; stroke-width:60; stroke-opacity:1; 
stroke-linecap:round; stroke-linejoin:round;">
<rect x="1600" y="53670" width="600" height="100" rx="0" />
<rect x="1600" y="52670" width="600" height="100" rx="0" />
<rect x="1600" y="51670" width="600" height="100" rx="0" />
<rect x="1600" y="50670" width="600" height="100" rx="0" />
<rect x="1600" y="49670" width="600" height="100" rx="0" />
<rect x="1600" y="48670" width="600" height="100" rx="0" />
<rect x="1600" y="47670" width="600" height="100" rx="0" />
<rect x="1600" y="46670" width="600" height="100" rx="0" />
<rect x="1600" y="45670" width="600" height="100" rx="0" />
<rect x="1600" y="44670" width="600" height="100" rx="0" />
<rect x="1600" y="43670" width="600" height="100" rx="0" />
<rect x="1600" y="42670" width="600" height="100" rx="0" />
<rect x="1600" y="41670" width="600" height="100" rx="0" />
<rect x="1600" y="40670" width="600" height="100" rx="0" />
<rect x="1600" y="39670" width="600" height="100" rx="0" />
<rect x="1600" y="38670" width="600" height="100" rx="0" />
<rect x="1600" y="37670" width="600" height="100" rx="0" />
<rect x="1600" y="36670" width="600" height="100" rx="0" />
<rect x="1600" y="35670" width="600" height="100" rx="0" />
<rect x="1600" y="34670" width="600" height="100" rx="0" />
<rect x="1600" y="33670" width="600" height="100" rx="0" />
<rect x="1600" y="32670" width="600" height="100" rx="0" />
<rect x="1600" y="31670" width="600" height="100" rx="0" />
<rect x="1600" y="30670" width="600" height="100" rx="0" />
<rect x="1600" y="29670" width="600" height="100" rx="0" />
<rect x="1600" y="28670" width="600" height="100" rx="0" />
<rect x="1600" y="27670" width="600" height="100" rx="0" />
<rect x="1600" y="26670" width="600" height="100" rx="0" />
<rect x="1600" y="25670" width="600" height="100" rx="0" />
<rect x="1600" y="24670" width="600" height="100" rx="0" />
<rect x="1600" y="23670" width="600" height="100" rx="0" />
<rect x="1600" y="22670" width="600" height="100" rx="0" />
<rect x="1600" y="21670" width="600" height="100" rx="0" />
<rect x="1600" y="20670" width="600" height="100" rx="0" />
<rect x="1600" y="19670" width="600" height="100" rx="0" />
<rect x="1600" y="18670" width="600" height="100" rx="0" />
<rect x="1600" y="17670" width="600" height="100" rx="0" />
<rect x="1600" y="16670" width="600" height="100" rx="0" />
<rect x="1600" y="15670" width="600" height="100" rx="0" />
<rect x="1600" y="14670" width="600" height="100" rx="0" />
<rect x="1600" y="13670" width="600" height="100" rx="0" />
<rect x="1600" y="12670" width="600" height="100" rx="0" />
<rect x="1600" y="11670" width="600" height="100" rx="0" />
<rect x="1600" y="10670" width="600" height="100" rx="0" />
<rect x="1600" y="9670" width="600" height="100" rx="0" />
<rect x="1600" y="8670" width="600" height="100" rx="0" />
<rect x="1600" y="8220" width="1000" height="46000" rx="0" />
<path d="M1600 8720
L100 8720
" />
<path d="M990 8600
L710 8600
" />
<path d="M850 8600
L850 8100
L800 8170
L750 8220
L710 8240
" />
<path d="M1600 9720
L100 9720
" />
<path d="M710 9140
L730 9120
L780 9100
L900 9100
L940 9120
L970 9140
L990 9190
L990 9240
L970 9310
L680 9600
L990 9600
" />
<path d="M1600 10720
L100 10720
" />
<path d="M680 10100
L990 10100
L820 10290
L900 10290
L940 10310
L970 10330
L990 10380
L990 10500
L970 10550
L940 10570
L900 10600
L750 10600
L710 10570
L680 10550
" />
<path d="M1600 11720
L100 11720
" />
<path d="M940 11260
L940 11600
" />
<path d="M820 11070
L710 11430
L1010 11430
" />
<path d="M1600 12720
L100 12720
" />
<path d="M970 12100
L730 12100
L710 12330
L730 12310
L780 12290
L900 12290
L940 12310
L970 12330
L990 12380
L990 12500
L970 12550
L940 12570
L900 12600
L780 12600
L730 12570
L710 12550
" />
<path d="M1600 13720
L100 13720
" />
<path d="M940 13100
L850 13100
L800 13120
L780 13140
L730 13220
L710 13310
L710 13500
L730 13550
L750 13570
L800 13600
L900 13600
L940 13570
L970 13550
L990 13500
L990 13380
L970 13330
L940 13310
L900 13290
L800 13290
L750 13310
L730 13330
L710 13380
" />
<path d="M1600 14720
L100 14720
" />
<path d="M680 14100
L1010 14100
L800 14600
" />
<path d="M1600 15720
L100 15720
" />
<path d="M800 15310
L750 15290
L730 15260
L710 15220
L710 15190
L730 15140
L750 15120
L800 15100
L900 15100
L940 15120
L970 15140
L990 15190
L990 15220
L970 15260
L940 15290
L900 15310
L800 15310
L750 15330
L730 15360
L710 15410
L710 15500
L730 15550
L750 15570
L800 15600
L900 15600
L940 15570
L970 15550
L990 15500
L990 15410
L970 15360
L940 15330
L900 15310
" />
<path d="M1600 16720
L100 16720
" />
<path d="M750 16600
L850 16600
L900 16570
L920 16550
L970 16480
L990 16380
L990 16190
L970 16140
L940 16120
L900 16100
L800 16100
L750 16120
L730 16140
L710 16190
L710 16310
L730 16360
L750 16380
L800 16410
L900 16410
L940 16380
L970 16360
L990 16310
" />
<path d="M1600 17720
L100 17720
" />
<path d="M750 17600
L470 17600
" />
<path d="M610 17600
L610 17100
L560 17170
L510 17220
L470 17240
" />
<path d="M1060 17100
L1110 17100
L1160 17120
L1180 17140
L1210 17190
L1230 17290
L1230 17410
L1210 17500
L1180 17550
L1160 17570
L1110 17600
L1060 17600
L1020 17570
L990 17550
L970 17500
L950 17410
L950 17290
L970 17190
L990 17140
L1020 17120
L1060 17100
" />
<path d="M1600 27720
L100 27720
" />
<path d="M470 27140
L490 27120
L540 27100
L660 27100
L700 27120
L730 27140
L750 27190
L750 27240
L730 27310
L440 27600
L750 27600
" />
<path d="M1060 27100
L1110 27100
L1160 27120
L1180 27140
L1210 27190
L1230 27290
L1230 27410
L1210 27500
L1180 27550
L1160 27570
L1110 27600
L1060 27600
L1020 27570
L990 27550
L970 27500
L950 27410
L950 27290
L970 27190
L990 27140
L1020 27120
L1060 27100
" />
<path d="M1600 37720
L100 37720
" />
<path d="M440 37100
L750 37100
L580 37290
L660 37290
L700 37310
L730 37330
L750 37380
L750 37500
L730 37550
L700 37570
L660 37600
L510 37600
L470 37570
L440 37550
" />
<path d="M1060 37100
L1110 37100
L1160 37120
L1180 37140
L1210 37190
L1230 37290
L1230 37410
L1210 37500
L1180 37550
L1160 37570
L1110 37600
L1060 37600
L1020 37570
L990 37550
L970 37500
L950 37410
L950 37290
L970 37190
L990 37140
L1020 37120
L1060 37100
" />
<path d="M1600 47720
L100 47720
" />
<path d="M700 47260
L700 47600
" />
<path d="M580 47070
L470 47430
L770 47430
" />
<path d="M1060 47100
L1110 47100
L1160 47120
L1180 47140
L1210 47190
L1230 47290
L1230 47410
L1210 47500
L1180 47550
L1160 47570
L1110 47600
L1060 47600
L1020 47570
L990 47550
L970 47500
L950 47410
L950 47290
L970 47190
L990 47140
L1020 47120
L1060 47100
" />
<path d="M1600 18720
L100 18720
" />
<path d="M750 18600
L470 18600
" />
<path d="M610 18600
L610 18100
L560 18170
L510 18220
L470 18240
" />
<path d="M1230 18600
L950 18600
" />
<path d="M1090 18600
L1090 18100
L1040 18170
L990 18220
L950 18240
" />
<path d="M1600 28720
L100 28720
" />
<path d="M470 28140
L490 28120
L540 28100
L660 28100
L700 28120
L730 28140
L750 28190
L750 28240
L730 28310
L440 28600
L750 28600
" />
<path d="M1230 28600
L950 28600
" />
<path d="M1090 28600
L1090 28100
L1040 28170
L990 28220
L950 28240
" />
<path d="M1600 38720
L100 38720
" />
<path d="M440 38100
L750 38100
L580 38290
L660 38290
L700 38310
L730 38330
L750 38380
L750 38500
L730 38550
L700 38570
L660 38600
L510 38600
L470 38570
L440 38550
" />
<path d="M1230 38600
L950 38600
" />
<path d="M1090 38600
L1090 38100
L1040 38170
L990 38220
L950 38240
" />
<path d="M1600 48720
L100 48720
" />
<path d="M700 48260
L700 48600
" />
<path d="M580 48070
L470 48430
L770 48430
" />
<path d="M1230 48600
L950 48600
" />
<path d="M1090 48600
L1090 48100
L1040 48170
L990 48220
L950 48240
" />
<path d="M1600 19720
L100 19720
" />
<path d="M750 19600
L470 19600
" />
<path d="M610 19600
L610 19100
L560 19170
L510 19220
L470 19240
" />
<path d="M950 19140
L970 19120
L1020 19100
L1140 19100
L1180 19120
L1210 19140
L1230 19190
L1230 19240
L1210 19310
L920 19600
L1230 19600
" />
<path d="M1600 29720
L100 29720
" />
<path d="M470 29140
L490 29120
L540 29100
L660 29100
L700 29120
L730 29140
L750 29190
L750 29240
L730 29310
L440 29600
L750 29600
" />
<path d="M950 29140
L970 29120
L1020 29100
L1140 29100
L1180 29120
L1210 29140
L1230 29190
L1230 29240
L1210 29310
L920 29600
L1230 29600
" />
<path d="M1600 39720
L100 39720
" />
<path d="M440 39100
L750 39100
L580 39290
L660 39290
L700 39310
L730 39330
L750 39380
L750 39500
L730 39550
L700 39570
L660 39600
L510 39600
L470 39570
L440 39550
" />
<path d="M950 39140
L970 39120
L1020 39100
L1140 39100
L1180 39120
L1210 39140
L1230 39190
L1230 39240
L1210 39310
L920 39600
L1230 39600
" />
<path d="M1600 49720
L100 49720
" />
<path d="M700 49260
L700 49600
" />
<path d="M580 49070
L470 49430
L770 49430
" />
<path d="M950 49140
L970 49120
L1020 49100
L1140 49100
L1180 49120
L1210 49140
L1230 49190
L1230 49240
L1210 49310
L920 49600
L1230 49600
" />
<path d="M1600 20720
L100 20720
" />
<path d="M750 20600
L470 20600
" />
<path d="M610 20600
L610 20100
L560 20170
L510 20220
L470 20240
" />
<path d="M920 20100
L1230 20100
L1060 20290
L1140 20290
L1180 20310
L1210 20330
L1230 20380
L1230 20500
L1210 20550
L1180 20570
L1140 20600
L990 20600
L950 20570
L920 20550
" />
<path d="M1600 30720
L100 30720
" />
<path d="M470 30140
L490 30120
L540 30100
L660 30100
L700 30120
L730 30140
L750 30190
L750 30240
L730 30310
L440 30600
L750 30600
" />
<path d="M920 30100
L1230 30100
L1060 30290
L1140 30290
L1180 30310
L1210 30330
L1230 30380
L1230 30500
L1210 30550
L1180 30570
L1140 30600
L990 30600
L950 30570
L920 30550
" />
<path d="M1600 40720
L100 40720
" />
<path d="M440 40100
L750 40100
L580 40290
L660 40290
L700 40310
L730 40330
L750 40380
L750 40500
L730 40550
L700 40570
L660 40600
L510 40600
L470 40570
L440 40550
" />
<path d="M920 40100
L1230 40100
L1060 40290
L1140 40290
L1180 40310
L1210 40330
L1230 40380
L1230 40500
L1210 40550
L1180 40570
L1140 40600
L990 40600
L950 40570
L920 40550
" />
<path d="M1600 50720
L100 50720
" />
<path d="M700 50260
L700 50600
" />
<path d="M580 50070
L470 50430
L770 50430
" />
<path d="M920 50100
L1230 50100
L1060 50290
L1140 50290
L1180 50310
L1210 50330
L1230 50380
L1230 50500
L1210 50550
L1180 50570
L1140 50600
L990 50600
L950 50570
L920 50550
" />
<path d="M1600 21720
L100 21720
" />
<path d="M750 21600
L470 21600
" />
<path d="M610 21600
L610 21100
L560 21170
L510 21220
L470 21240
" />
<path d="M1180 21260
L1180 21600
" />
<path d="M1060 21070
L950 21430
L1250 21430
" />
<path d="M1600 31720
L100 31720
" />
<path d="M470 31140
L490 31120
L540 31100
L660 31100
L700 31120
L730 31140
L750 31190
L750 31240
L730 31310
L440 31600
L750 31600
" />
<path d="M1180 31260
L1180 31600
" />
<path d="M1060 31070
L950 31430
L1250 31430
" />
<path d="M1600 41720
L100 41720
" />
<path d="M440 41100
L750 41100
L580 41290
L660 41290
L700 41310
L730 41330
L750 41380
L750 41500
L730 41550
L700 41570
L660 41600
L510 41600
L470 41570
L440 41550
" />
<path d="M1180 41260
L1180 41600
" />
<path d="M1060 41070
L950 41430
L1250 41430
" />
<path d="M1600 51720
L100 51720
" />
<path d="M700 51260
L700 51600
" />
<path d="M580 51070
L470 51430
L770 51430
" />
<path d="M1180 51260
L1180 51600
" />
<path d="M1060 51070
L950 51430
L1250 51430
" />
<path d="M1600 22720
L100 22720
" />
<path d="M750 22600
L470 22600
" />
<path d="M610 22600
L610 22100
L560 22170
L510 22220
L470 22240
" />
<path d="M1210 22100
L970 22100
L950 22330
L970 22310
L1020 22290
L1140 22290
L1180 22310
L1210 22330
L1230 22380
L1230 22500
L1210 22550
L1180 22570
L1140 22600
L1020 22600
L970 22570
L950 22550
" />
<path d="M1600 32720
L100 32720
" />
<path d="M470 32140
L490 32120
L540 32100
L660 32100
L700 32120
L730 32140
L750 32190
L750 32240
L730 32310
L440 32600
L750 32600
" />
<path d="M1210 32100
L970 32100
L950 32330
L970 32310
L1020 32290
L1140 32290
L1180 32310
L1210 32330
L1230 32380
L1230 32500
L1210 32550
L1180 32570
L1140 32600
L1020 32600
L970 32570
L950 32550
" />
<path d="M1600 42720
L100 42720
" />
<path d="M440 42100
L750 42100
L580 42290
L660 42290
L700 42310
L730 42330
L750 42380
L750 42500
L730 42550
L700 42570
L660 42600
L510 42600
L470 42570
L440 42550
" />
<path d="M1210 42100
L970 42100
L950 42330
L970 42310
L1020 42290
L1140 42290
L1180 42310
L1210 42330
L1230 42380
L1230 42500
L1210 42550
L1180 42570
L1140 42600
L1020 42600
L970 42570
L950 42550
" />
<path d="M1600 53720
L100 53720
" />
<path d="M700 53260
L700 53600
" />
<path d="M580 53070
L470 53430
L770 53430
" />
<path d="M1180 53100
L1090 53100
L1040 53120
L1020 53140
L970 53220
L950 53310
L950 53500
L970 53550
L990 53570
L1040 53600
L1140 53600
L1180 53570
L1210 53550
L1230 53500
L1230 53380
L1210 53330
L1180 53310
L1140 53290
L1040 53290
L990 53310
L970 53330
L950 53380
" />
<path d="M1600 52720
L100 52720
" />
<path d="M700 52260
L700 52600
" />
<path d="M580 52070
L470 52430
L770 52430
" />
<path d="M1210 52100
L970 52100
L950 52330
L970 52310
L1020 52290
L1140 52290
L1180 52310
L1210 52330
L1230 52380
L1230 52500
L1210 52550
L1180 52570
L1140 52600
L1020 52600
L970 52570
L950 52550
" />
<path d="M1600 23720
L100 23720
" />
<path d="M750 23600
L470 23600
" />
<path d="M610 23600
L610 23100
L560 23170
L510 23220
L470 23240
" />
<path d="M1180 23100
L1090 23100
L1040 23120
L1020 23140
L970 23220
L950 23310
L950 23500
L970 23550
L990 23570
L1040 23600
L1140 23600
L1180 23570
L1210 23550
L1230 23500
L1230 23380
L1210 23330
L1180 23310
L1140 23290
L1040 23290
L990 23310
L970 23330
L950 23380
" />
<path d="M1600 33720
L100 33720
" />
<path d="M470 33140
L490 33120
L540 33100
L660 33100
L700 33120
L730 33140
L750 33190
L750 33240
L730 33310
L440 33600
L750 33600
" />
<path d="M1180 33100
L1090 33100
L1040 33120
L1020 33140
L970 33220
L950 33310
L950 33500
L970 33550
L990 33570
L1040 33600
L1140 33600
L1180 33570
L1210 33550
L1230 33500
L1230 33380
L1210 33330
L1180 33310
L1140 33290
L1040 33290
L990 33310
L970 33330
L950 33380
" />
<path d="M1600 43720
L100 43720
" />
<path d="M440 43100
L750 43100
L580 43290
L660 43290
L700 43310
L730 43330
L750 43380
L750 43500
L730 43550
L700 43570
L660 43600
L510 43600
L470 43570
L440 43550
" />
<path d="M1180 43100
L1090 43100
L1040 43120
L1020 43140
L970 43220
L950 43310
L950 43500
L970 43550
L990 43570
L1040 43600
L1140 43600
L1180 43570
L1210 43550
L1230 43500
L1230 43380
L1210 43330
L1180 43310
L1140 43290
L1040 43290
L990 43310
L970 43330
L950 43380
" />
<path d="M1600 24720
L100 24720
" />
<path d="M750 24600
L470 24600
" />
<path d="M610 24600
L610 24100
L560 24170
L510 24220
L470 24240
" />
<path d="M920 24100
L1250 24100
L1040 24600
" />
<path d="M1600 34720
L100 34720
" />
<path d="M470 34140
L490 34120
L540 34100
L660 34100
L700 34120
L730 34140
L750 34190
L750 34240
L730 34310
L440 34600
L750 34600
" />
<path d="M920 34100
L1250 34100
L1040 34600
" />
<path d="M1600 44720
L100 44720
" />
<path d="M440 44100
L750 44100
L580 44290
L660 44290
L700 44310
L730 44330
L750 44380
L750 44500
L730 44550
L700 44570
L660 44600
L510 44600
L470 44570
L440 44550
" />
<path d="M920 44100
L1250 44100
L1040 44600
" />
<path d="M1600 25720
L100 25720
" />
<path d="M750 25600
L470 25600
" />
<path d="M610 25600
L610 25100
L560 25170
L510 25220
L470 25240
" />
<path d="M1040 25310
L990 25290
L970 25260
L950 25220
L950 25190
L970 25140
L990 25120
L1040 25100
L1140 25100
L1180 25120
L1210 25140
L1230 25190
L1230 25220
L1210 25260
L1180 25290
L1140 25310
L1040 25310
L990 25330
L970 25360
L950 25410
L950 25500
L970 25550
L990 25570
L1040 25600
L1140 25600
L1180 25570
L1210 25550
L1230 25500
L1230 25410
L1210 25360
L1180 25330
L1140 25310
" />
<path d="M1600 35720
L100 35720
" />
<path d="M470 35140
L490 35120
L540 35100
L660 35100
L700 35120
L730 35140
L750 35190
L750 35240
L730 35310
L440 35600
L750 35600
" />
<path d="M1040 35310
L990 35290
L970 35260
L950 35220
L950 35190
L970 35140
L990 35120
L1040 35100
L1140 35100
L1180 35120
L1210 35140
L1230 35190
L1230 35220
L1210 35260
L1180 35290
L1140 35310
L1040 35310
L990 35330
L970 35360
L950 35410
L950 35500
L970 35550
L990 35570
L1040 35600
L1140 35600
L1180 35570
L1210 35550
L1230 35500
L1230 35410
L1210 35360
L1180 35330
L1140 35310
" />
<path d="M1600 45720
L100 45720
" />
<path d="M440 45100
L750 45100
L580 45290
L660 45290
L700 45310
L730 45330
L750 45380
L750 45500
L730 45550
L700 45570
L660 45600
L510 45600
L470 45570
L440 45550
" />
<path d="M1040 45310
L990 45290
L970 45260
L950 45220
L950 45190
L970 45140
L990 45120
L1040 45100
L1140 45100
L1180 45120
L1210 45140
L1230 45190
L1230 45220
L1210 45260
L1180 45290
L1140 45310
L1040 45310
L990 45330
L970 45360
L950 45410
L950 45500
L970 45550
L990 45570
L1040 45600
L1140 45600
L1180 45570
L1210 45550
L1230 45500
L1230 45410
L1210 45360
L1180 45330
L1140 45310
" />
<path d="M1600 26720
L100 26720
" />
<path d="M750 26600
L470 26600
" />
<path d="M610 26600
L610 26100
L560 26170
L510 26220
L470 26240
" />
<path d="M990 26600
L1090 26600
L1140 26570
L1160 26550
L1210 26480
L1230 26380
L1230 26190
L1210 26140
L1180 26120
L1140 26100
L1040 26100
L990 26120
L970 26140
L950 26190
L950 26310
L970 26360
L990 26380
L1040 26410
L1140 26410
L1180 26380
L1210 26360
L1230 26310
" />
<path d="M1600 36720
L100 36720
" />
<path d="M470 36140
L490 36120
L540 36100
L660 36100
L700 36120
L730 36140
L750 36190
L750 36240
L730 36310
L440 36600
L750 36600
" />
<path d="M990 36600
L1090 36600
L1140 36570
L1160 36550
L1210 36480
L1230 36380
L1230 36190
L1210 36140
L1180 36120
L1140 36100
L1040 36100
L990 36120
L970 36140
L950 36190
L950 36310
L970 36360
L990 36380
L1040 36410
L1140 36410
L1180 36380
L1210 36360
L1230 36310
" />
<path d="M1600 46720
L100 46720
" />
<path d="M440 46100
L750 46100
L580 46290
L660 46290
L700 46310
L730 46330
L750 46380
L750 46500
L730 46550
L700 46570
L660 46600
L510 46600
L470 46570
L440 46550
" />
<path d="M990 46600
L1090 46600
L1140 46570
L1160 46550
L1210 46480
L1230 46380
L1230 46190
L1210 46140
L1180 46120
L1140 46100
L1040 46100
L990 46120
L970 46140
L950 46190
L950 46310
L970 46360
L990 46380
L1040 46410
L1140 46410
L1180 46380
L1210 46360
L1230 46310
" />
<path d="M1760 7950
L1760 7450
L1950 7450
L2000 7470
L2020 7490
L2040 7540
L2040 7610
L2020 7660
L2000 7680
L1950 7710
L1760 7710
" />
<path d="M2330 7900
L2350 7920
L2330 7950
L2310 7920
L2330 7900
L2330 7950
" />
<path d="M2240 7470
L2280 7450
L2400 7450
L2450 7470
L2470 7520
L2470 7570
L2450 7610
L2430 7640
L2380 7660
L2350 7680
L2330 7730
L2330 7760
" />
<path d="M3280 30240
L3300 30260
L3330 30330
L3330 30380
L3300 30450
L3250 30500
L3210 30520
L3110 30540
L3040 30540
L2950 30520
L2900 30500
L2850 30450
L2830 30380
L2830 30330
L2850 30260
L2870 30240
" />
<path d="M2830 29930
L2830 29830
L2850 29780
L2900 29740
L2990 29710
L3160 29710
L3250 29740
L3300 29780
L3330 29830
L3330 29930
L3300 29970
L3250 30020
L3160 30040
L2990 30040
L2900 30020
L2850 29970
L2830 29930
" />
<path d="M3330 29500
L2830 29500
L3330 29220
L2830 29220
" />
<path d="M3330 28980
L2830 28980
L3330 28700
L2830 28700
" />
<path d="M3370 28580
L3370 28200
" />
<path d="M2830 27990
L2830 27940
L2850 27890
L2870 27870
L2920 27840
L3020 27820
L3140 27820
L3230 27840
L3280 27870
L3300 27890
L3330 27940
L3330 27990
L3300 28030
L3280 28060
L3230 28080
L3140 28100
L3020 28100
L2920 28080
L2870 28060
L2850 28030
L2830 27990
" />
<path d="M3330 27340
L3330 27620
" />
<path d="M3330 27480
L2830 27480
L2900 27530
L2950 27580
L2970 27620
" />
<path d="M2830 27170
L3330 26840
" />
<path d="M2830 26840
L3330 27170
" />
<path d="M2990 26430
L3330 26430
" />
<path d="M2800 26550
L3160 26660
L3160 26360
" />
<path d="M2830 25950
L2830 26040
L2850 26090
L2870 26110
L2950 26160
L3040 26180
L3230 26180
L3280 26160
L3300 26140
L3330 26090
L3330 25990
L3300 25950
L3280 25920
L3230 25900
L3110 25900
L3060 25920
L3040 25950
L3020 25990
L3020 26090
L3040 26140
L3060 26160
L3110 26180
" />
</g> 
</svg>
